<svg width="1200" height="630" viewBox="0 0 1200 630" xmlns="http://www.w3.org/2000/svg">
  <defs>
    <linearGradient id="bg" x1="0%" y1="0%" x2="100%" y2="100%">
      <stop offset="0%" style="stop-color:#050810"/>
      <stop offset="100%" style="stop-color:#0d1117"/>
    </linearGradient>
    <linearGradient id="cyan" x1="0%" y1="0%" x2="100%" y2="0%">
      <stop offset="0%" style="stop-color:#00ffc8"/>
      <stop offset="100%" style="stop-color:#00e5ff"/>
    </linearGradient>
  </defs>

  <!-- Background -->
  <rect width="1200" height="630" fill="url(#bg)"/>

  <!-- Grid lines -->
  <g opacity="0.04" stroke="#00ffc8" stroke-width="1">
    <line x1="0" y1="40"  x2="1200" y2="40"/>
    <line x1="0" y1="80"  x2="1200" y2="80"/>
    <line x1="0" y1="120" x2="1200" y2="120"/>
    <line x1="0" y1="160" x2="1200" y2="160"/>
    <line x1="0" y1="200" x2="1200" y2="200"/>
    <line x1="0" y1="240" x2="1200" y2="240"/>
    <line x1="0" y1="280" x2="1200" y2="280"/>
    <line x1="0" y1="320" x2="1200" y2="320"/>
    <line x1="0" y1="360" x2="1200" y2="360"/>
    <line x1="0" y1="400" x2="1200" y2="400"/>
    <line x1="0" y1="440" x2="1200" y2="440"/>
    <line x1="0" y1="480" x2="1200" y2="480"/>
    <line x1="0" y1="520" x2="1200" y2="520"/>
    <line x1="0" y1="560" x2="1200" y2="560"/>
    <line x1="0" y1="600" x2="1200" y2="600"/>
    <line x1="40"   y1="0" x2="40"   y2="630"/>
    <line x1="80"   y1="0" x2="80"   y2="630"/>
    <line x1="120"  y1="0" x2="120"  y2="630"/>
    <line x1="160"  y1="0" x2="160"  y2="630"/>
    <line x1="200"  y1="0" x2="200"  y2="630"/>
    <line x1="240"  y1="0" x2="240"  y2="630"/>
    <line x1="280"  y1="0" x2="280"  y2="630"/>
    <line x1="320"  y1="0" x2="320"  y2="630"/>
    <line x1="360"  y1="0" x2="360"  y2="630"/>
    <line x1="400"  y1="0" x2="400"  y2="630"/>
    <line x1="440"  y1="0" x2="440"  y2="630"/>
    <line x1="480"  y1="0" x2="480"  y2="630"/>
    <line x1="520"  y1="0" x2="520"  y2="630"/>
    <line x1="560"  y1="0" x2="560"  y2="630"/>
    <line x1="600"  y1="0" x2="600"  y2="630"/>
    <line x1="640"  y1="0" x2="640"  y2="630"/>
    <line x1="680"  y1="0" x2="680"  y2="630"/>
    <line x1="720"  y1="0" x2="720"  y2="630"/>
    <line x1="760"  y1="0" x2="760"  y2="630"/>
    <line x1="800"  y1="0" x2="800"  y2="630"/>
    <line x1="840"  y1="0" x2="840"  y2="630"/>
    <line x1="880"  y1="0" x2="880"  y2="630"/>
    <line x1="920"  y1="0" x2="920"  y2="630"/>
    <line x1="960"  y1="0" x2="960"  y2="630"/>
    <line x1="1000" y1="0" x2="1000" y2="630"/>
    <line x1="1040" y1="0" x2="1040" y2="630"/>
    <line x1="1080" y1="0" x2="1080" y2="630"/>
    <line x1="1120" y1="0" x2="1120" y2="630"/>
    <line x1="1160" y1="0" x2="1160" y2="630"/>
  </g>

  <!-- Glow orb -->
  <radialGradient id="orb1" cx="80%" cy="30%" r="40%">
    <stop offset="0%" style="stop-color:#00ffc8;stop-opacity:0.12"/>
    <stop offset="100%" style="stop-color:#00ffc8;stop-opacity:0"/>
  </radialGradient>
  <rect width="1200" height="630" fill="url(#orb1)"/>

  <!-- Border -->
  <rect x="1" y="1" width="1198" height="628" fill="none" stroke="rgba(0,255,200,0.15)" stroke-width="2" rx="0"/>

  <!-- Badge -->
  <rect x="80" y="60" width="220" height="32" rx="16" fill="rgba(0,255,200,0.12)" stroke="rgba(0,255,200,0.3)" stroke-width="1"/>
  <circle cx="104" cy="76" r="5" fill="#ff4d6d"/>
  <text x="118" y="81" font-family="monospace" font-size="12" fill="#00ffc8" font-weight="bold" letter-spacing="1">Lab interactif • Live</text>

  <!-- Main title -->
  <text x="80" y="200" font-family="Arial Black, sans-serif" font-size="72" fill="white" font-weight="900">Votre business</text>
  <text x="80" y="290" font-family="Arial Black, sans-serif" font-size="72" font-weight="900">
    <tspan fill="url(#cyan)">peut Automatiser.</tspan>
  </text>

  <!-- Subtitle -->
  <text x="80" y="360" font-family="Arial, sans-serif" font-size="22" fill="rgba(255,255,255,0.6)">Expert IA &amp; Automatisation B2B — Oussama Abassi</text>

  <!-- Stats -->
  <g transform="translate(80, 430)">
    <rect width="180" height="70" rx="10" fill="rgba(255,255,255,0.04)" stroke="rgba(255,255,255,0.08)" stroke-width="1"/>
    <text x="90" y="30" font-family="monospace" font-size="28" fill="#00ffc8" font-weight="bold" text-anchor="middle">12k+</text>
    <text x="90" y="52" font-family="Arial, sans-serif" font-size="11" fill="rgba(255,255,255,0.4)" text-anchor="middle">Leads générés</text>
  </g>
  <g transform="translate(280, 430)">
    <rect width="180" height="70" rx="10" fill="rgba(255,255,255,0.04)" stroke="rgba(255,255,255,0.08)" stroke-width="1"/>
    <text x="90" y="30" font-family="monospace" font-size="28" fill="#00ffc8" font-weight="bold" text-anchor="middle">340h</text>
    <text x="90" y="52" font-family="Arial, sans-serif" font-size="11" fill="rgba(255,255,255,0.4)" text-anchor="middle">Économisées/mois</text>
  </g>
  <g transform="translate(480, 430)">
    <rect width="180" height="70" rx="10" fill="rgba(255,255,255,0.04)" stroke="rgba(255,255,255,0.08)" stroke-width="1"/>
    <text x="90" y="30" font-family="monospace" font-size="28" fill="#00ffc8" font-weight="bold" text-anchor="middle">98%</text>
    <text x="90" y="52" font-family="Arial, sans-serif" font-size="11" fill="rgba(255,255,255,0.4)" text-anchor="middle">Satisfaction</text>
  </g>

  <!-- URL -->
  <text x="80" y="578" font-family="monospace" font-size="14" fill="rgba(0,255,200,0.4)">oussama-hq.vercel.app</text>
</svg>
